<svg viewBox="0 0 837 509" xmlns="http://www.w3.org/2000/svg" xml:space="preserve" style="fill-rule:evenodd;clip-rule:evenodd;stroke-linejoin:round;stroke-miterlimit:2"><path d="M0-32.652c0-2.977-1.173-4.51-3.969-4.51h-6.133v19.213h6.133C-1.173-17.949 0-19.483 0-22.46v-10.192ZM-2.796-9.29h-7.306v23h-11.185v-60.072h18.491c8.479 0 13.62 4.87 13.62 13.53v10.102c0 8.569-5.141 13.44-13.62 13.44" style="fill-rule:nonzero" transform="translate(474.83 147.715)"/><path d="M0-27.601-4.059-4.42h7.667L0-27.601Zm7.036 43.837L5.051 4.42H-5.592l-2.165 11.816H-18.22l12.087-60.073H6.404l11.997 60.073H7.036Z" style="fill-rule:nonzero" transform="translate(508.197 145.19)"/><path d="M0 60.072V16.506l-2.435 13.079-6.405 30.487h-8.478l-6.044-30.487-2.345-13.079v43.566h-10.012V0h15.063l6.224 30.487 1.894 11.094 1.985-11.094L-4.42 0h14.973v60.072H0Z" style="fill-rule:nonzero" transform="translate(571.065 101.353)"/><path d="M0 60.072V0h11.185v50.15h16.777v9.922H0Z" style="fill-rule:nonzero" transform="translate(593.885 101.353)"/><path d="M0 62.778c-10.734 0-17.318-7.216-17.318-16.506V16.506C-17.318 7.216-10.734 0 0 0c10.643 0 16.236 6.674 16.236 15.694V23H6.224v-7.215c0-3.518-1.985-5.954-6.044-5.954-4.058 0-6.133 2.436-6.133 5.773v31.57c0 3.337 2.075 5.772 6.133 5.772 4.059 0 6.044-2.435 6.044-5.953v-7.216h10.012v7.306c0 9.02-5.593 15.695-16.236 15.695" style="fill-rule:nonzero" transform="translate(671.545 100)"/><path d="M0-31.48c0-3.518-2.075-5.863-5.773-5.863-3.608 0-5.682 2.345-5.682 5.863V-.091c0 3.518 2.074 5.863 5.682 5.863C-2.075 5.772 0 3.427 0-.091V-31.48Zm-5.773 47.084c-10.463 0-17.047-6.855-17.047-16.416v-29.946c0-9.471 6.584-16.326 17.047-16.326 10.553 0 17.048 6.855 17.048 16.326V-.812c0 9.561-6.495 16.416-17.048 16.416" style="fill-rule:nonzero" transform="translate(720.793 147.175)"/><path d="M0-32.652c0-2.977-1.173-4.51-3.969-4.51h-6.133v19.213h6.133C-1.173-17.949 0-19.483 0-22.46v-10.192ZM-2.796-9.29h-7.306v23h-11.185v-60.072h18.491c8.479 0 13.62 4.87 13.62 13.53v10.102c0 8.569-5.141 13.44-13.62 13.44" style="fill-rule:nonzero" transform="translate(474.83 147.715)"/><path d="M0-27.601-4.059-4.42h7.667L0-27.601Zm7.036 43.837L5.051 4.42H-5.592l-2.165 11.816H-18.22l12.087-60.073H6.404l11.997 60.073H7.036Z" style="fill-rule:nonzero" transform="translate(508.197 145.19)"/><path d="M0 60.072V16.506l-2.435 13.079-6.405 30.487h-8.478l-6.044-30.487-2.345-13.079v43.566h-10.012V0h15.063l6.224 30.487 1.894 11.094 1.985-11.094L-4.42 0h14.973v60.072H0Z" style="fill-rule:nonzero" transform="translate(571.065 101.353)"/><path d="M0 60.072V0h11.185v50.15h16.777v9.922H0Z" style="fill-rule:nonzero" transform="translate(593.885 101.353)"/><path d="M631.317 101.353h11.185v60.072h-11.185z"/><path d="M0 62.778c-10.734 0-17.318-7.216-17.318-16.506V16.506C-17.318 7.216-10.734 0 0 0c10.643 0 16.236 6.674 16.236 15.694V23H6.224v-7.215c0-3.518-1.985-5.954-6.044-5.954-4.058 0-6.133 2.436-6.133 5.773v31.57c0 3.337 2.075 5.772 6.133 5.772 4.059 0 6.044-2.435 6.044-5.953v-7.216h10.012v7.306c0 9.02-5.593 15.695-16.236 15.695" style="fill-rule:nonzero" transform="translate(671.545 100)"/><path d="M0-31.48c0-3.518-2.075-5.863-5.773-5.863-3.608 0-5.682 2.345-5.682 5.863V-.091c0 3.518 2.074 5.863 5.682 5.863C-2.075 5.772 0 3.427 0-.091V-31.48Zm-5.773 47.084c-10.463 0-17.047-6.855-17.047-16.416v-29.946c0-9.471 6.584-16.326 17.047-16.326 10.553 0 17.048 6.855 17.048 16.326V-.812c0 9.561-6.495 16.416-17.048 16.416" style="fill-rule:nonzero" transform="translate(720.793 147.175)"/><path d="M0 60.072V16.506l-2.435 13.079-6.405 30.487h-8.478l-6.044-30.487-2.345-13.079v43.566h-10.012V0h15.063l6.224 30.487 1.894 11.094 1.985-11.094L-4.42 0h14.973v60.072H0Z" style="fill-rule:nonzero" transform="translate(489.366 179.178)"/><path d="M0 61.425c-9.742 0-16.957-6.224-16.957-15.244V0h11.365v46.181c0 3.518 1.984 5.503 5.592 5.503 3.698 0 5.683-1.985 5.683-5.503V0h10.914v46.181c0 9.02-6.856 15.244-16.597 15.244" style="fill-rule:nonzero" transform="translate(528.963 179.178)"/><path d="M0 62.688c-10.283 0-16.687-6.133-16.687-15.514v-4.149h10.283v3.517c0 4.42 2.075 6.856 6.133 6.856 3.969 0 5.954-2.346 5.954-6.044 0-4.78-3.067-8.027-9.02-12.447-6.134-4.42-12.809-10.373-12.809-18.762C-16.146 7.486-10.553 0 .271 0c9.471 0 15.784 6.494 15.784 15.424v3.878H5.863v-3.607c0-3.699-1.894-6.405-5.683-6.405-3.247 0-5.412 2.075-5.412 5.412 0 5.051 2.977 7.667 9.652 12.538 7.125 5.322 12.177 10.734 12.177 18.852 0 9.651-6.675 16.596-16.597 16.596" style="fill-rule:nonzero" transform="translate(572.708 177.915)"/><path d="M0 62.778c-10.734 0-17.318-7.216-17.318-16.506V16.506C-17.318 7.216-10.734 0 0 0c10.643 0 16.236 6.674 16.236 15.694V23H6.224v-7.215c0-3.518-1.985-5.954-6.044-5.954-4.058 0-6.133 2.436-6.133 5.773v31.57c0 3.337 2.075 5.772 6.133 5.772 4.059 0 6.044-2.435 6.044-5.953v-7.216h10.012v7.306c0 9.02-5.593 15.695-16.236 15.695" style="fill-rule:nonzero" transform="translate(640.086 177.825)"/><path d="M0-27.601-4.059-4.42h7.667L0-27.601Zm7.036 43.837L5.051 4.42H-5.592l-2.165 11.816H-18.22l12.087-60.073H6.404l11.997 60.073H7.036Z" style="fill-rule:nonzero" transform="translate(681.317 223.014)"/><path d="M0 60.072V0h11.185v50.15h16.777v9.922H0Z" style="fill-rule:nonzero" transform="translate(708.466 179.178)"/><path d="M0 60.072V16.506l-2.435 13.079-6.405 30.487h-8.478l-6.044-30.487-2.345-13.079v43.566h-10.012V0h15.063l6.224 30.487 1.894 11.094 1.985-11.094L-4.42 0h14.973v60.072H0Z" style="fill-rule:nonzero" transform="translate(489.366 179.178)"/><path d="M0 61.425c-9.742 0-16.957-6.224-16.957-15.244V0h11.365v46.181c0 3.518 1.984 5.503 5.592 5.503 3.698 0 5.683-1.985 5.683-5.503V0h10.914v46.181c0 9.02-6.856 15.244-16.597 15.244" style="fill-rule:nonzero" transform="translate(528.963 179.178)"/><path d="M0 62.688c-10.283 0-16.687-6.133-16.687-15.514v-4.149h10.283v3.517c0 4.42 2.075 6.856 6.133 6.856 3.969 0 5.954-2.346 5.954-6.044 0-4.78-3.067-8.027-9.02-12.447-6.134-4.42-12.809-10.373-12.809-18.762C-16.146 7.486-10.553 0 .271 0c9.471 0 15.784 6.494 15.784 15.424v3.878H5.863v-3.607c0-3.699-1.894-6.405-5.683-6.405-3.247 0-5.412 2.075-5.412 5.412 0 5.051 2.977 7.667 9.652 12.538 7.125 5.322 12.177 10.734 12.177 18.852 0 9.651-6.675 16.596-16.597 16.596" style="fill-rule:nonzero" transform="translate(572.708 177.915)"/><path d="M599.857 179.177h11.185v60.072h-11.185z"/><path d="M0 62.778c-10.734 0-17.318-7.216-17.318-16.506V16.506C-17.318 7.216-10.734 0 0 0c10.643 0 16.236 6.674 16.236 15.694V23H6.224v-7.215c0-3.518-1.985-5.954-6.044-5.954-4.058 0-6.133 2.436-6.133 5.773v31.57c0 3.337 2.075 5.772 6.133 5.772 4.059 0 6.044-2.435 6.044-5.953v-7.216h10.012v7.306c0 9.02-5.593 15.695-16.236 15.695" style="fill-rule:nonzero" transform="translate(640.086 177.825)"/><path d="M0-27.601-4.059-4.42h7.667L0-27.601Zm7.036 43.837L5.051 4.42H-5.592l-2.165 11.816H-18.22l12.087-60.073H6.404l11.997 60.073H7.036Z" style="fill-rule:nonzero" transform="translate(681.317 223.014)"/><path d="M0 60.072V0h11.185v50.15h16.777v9.922H0Z" style="fill-rule:nonzero" transform="translate(708.466 179.178)"/><path d="M0 62.688c-10.283 0-16.687-6.133-16.687-15.514v-4.149h10.283v3.517c0 4.42 2.075 6.855 6.133 6.855 3.969 0 5.954-2.345 5.954-6.043 0-4.78-3.067-8.028-9.02-12.447-6.134-4.42-12.809-10.373-12.809-18.762C-16.146 7.486-10.553 0 .271 0c9.471 0 15.784 6.494 15.784 15.424v3.878H5.863v-3.607c0-3.699-1.894-6.405-5.683-6.405-3.247 0-5.412 2.075-5.412 5.412 0 5.051 2.977 7.667 9.652 12.538 7.126 5.322 12.177 10.734 12.177 18.851 0 9.652-6.675 16.597-16.597 16.597" style="fill-rule:nonzero" transform="translate(470.23 255.739)"/><path d="M0-31.48c0-3.518-2.075-5.863-5.773-5.863-3.608 0-5.682 2.345-5.682 5.863V-.091c0 3.518 2.074 5.863 5.682 5.863C-2.075 5.772 0 3.427 0-.091V-31.48Zm-5.773 47.084c-10.463 0-17.047-6.855-17.047-16.416v-29.946c0-9.471 6.584-16.326 17.047-16.326 10.553 0 17.048 6.855 17.048 16.326V-.812c0 9.561-6.495 16.416-17.048 16.416" style="fill-rule:nonzero" transform="translate(521.033 302.823)"/><path d="M0 62.778c-10.734 0-17.318-7.216-17.318-16.506V16.506C-17.318 7.215-10.734 0 0 0c10.643 0 16.236 6.674 16.236 15.694V23H6.224v-7.215c0-3.518-1.985-5.954-6.044-5.954-4.058 0-6.133 2.436-6.133 5.773v31.57c0 3.337 2.075 5.772 6.133 5.772 4.059 0 6.044-2.435 6.044-5.953v-7.216h10.012v7.306c0 9.02-5.593 15.695-16.236 15.695" style="fill-rule:nonzero" transform="translate(561.997 255.649)"/><path d="M590.713 257.002h11.185v60.072h-11.185z"/><path d="M0 60.072V0h28.683v9.651H11.185v14.883h12.086v8.839H11.185V50.06h17.498v10.012H0Z" style="fill-rule:nonzero" transform="translate(615.253 257.002)"/><path d="M0 62.778c-10.734 0-17.318-7.216-17.318-16.506V16.506C-17.318 7.215-10.734 0 0 0c10.643 0 16.236 6.674 16.236 15.694V23H6.224v-7.215c0-3.518-1.985-5.954-6.044-5.954-4.058 0-6.133 2.436-6.133 5.773v31.57c0 3.337 2.075 5.772 6.133 5.772 4.059 0 6.044-2.435 6.044-5.953v-7.216h10.012v7.306c0 9.02-5.593 15.695-16.236 15.695" style="fill-rule:nonzero" transform="translate(561.012 255.649)"/><path d="M589.729 257.002h11.185v60.072h-11.185z"/><path d="M0 60.072V0h28.683v9.651H11.185v14.883h12.086v8.839H11.185V50.06h17.498v10.012H0Z" style="fill-rule:nonzero" transform="translate(614.706 257.002)"/><path d="M0-40.229V9.922h-11.275v-50.151h-11.094v-9.922h33.373v9.922H0Z" style="fill-rule:nonzero" transform="translate(677.145 307.153)"/><path d="M0 11.004v24.534h-11.185V11.004l-13.259-35.538h11.726L-4.961-.091l7.396-24.443H13.62L0 11.004Z" style="fill-rule:nonzero" transform="translate(720.478 281.536)"/><path d="M0 .002c0 4.439.359 8.822 1.044 13.136l49.957 3.355a3.556 3.556 0 0 0 3.809-3.546V-12.95c0-.981-.412-1.928-1.131-2.598a3.553 3.553 0 0 0-2.668-.942L1.044-13.134A83.682 83.682 0 0 0 0 .002" style="fill:#53b0c9;fill-rule:nonzero" transform="translate(111.089 146.817)"/><path d="M0 33.361a2.28 2.28 0 0 1-4.559 0v-59.367a2.28 2.28 0 0 1 4.559 0v59.367Zm52.039-46.11h23.558a71.83 71.83 0 0 0-3.825-11.872 72.341 72.341 0 0 0-11.275-18.397H-50.931a72.345 72.345 0 0 0-11.276 18.397 71.472 71.472 0 0 0-3.311 9.812l38.026-2.554a8.136 8.136 0 0 1 6.092 2.155 8.139 8.139 0 0 1 2.582 5.933v25.897a8.129 8.129 0 0 1-2.585 5.939 8.149 8.149 0 0 1-6.099 2.155l-38.015-2.552a71.512 71.512 0 0 0 3.31 9.812 72.48 72.48 0 0 0 15.582 23.109 72.469 72.469 0 0 0 23.11 15.582c8.961 3.79 18.482 5.712 28.298 5.712 9.816 0 19.337-1.922 28.298-5.712a72.469 72.469 0 0 0 23.11-15.582 72.445 72.445 0 0 0 15.581-23.109 71.83 71.83 0 0 0 3.825-11.872H52.042c-4.476 0-8.117-3.178-8.117-7.084V-5.665c0-3.906 3.64-7.084 8.114-7.084" style="fill:#53b0c9;fill-rule:nonzero" transform="translate(189.277 143.142)"/><path d="M0 30.269h5.858A81.978 81.978 0 0 0 .984 14.4 82.674 82.674 0 0 0-6.877 0h-7.041a76.89 76.89 0 0 1 9.639 16.621C-2.406 21.049-1.005 25.613 0 30.269" style="fill:#53b0c9;fill-rule:nonzero" transform="translate(269.527 100.124)"/><path d="m0 28.931 5.961-.4a76.284 76.284 0 0 1 3.898-11.91A76.872 76.872 0 0 1 19.498 0h-7.042a82.678 82.678 0 0 0-7.86 14.401A82.203 82.203 0 0 0 0 28.931" style="fill:#53b0c9;fill-rule:nonzero" transform="translate(113.013 100.124)"/><path d="M0 12.41c1.21 0 2.194-.984 2.194-2.194V0l-4.386.257v9.959c0 1.21.983 2.194 2.192 2.194" style="fill:#53b0c9;fill-rule:nonzero" transform="translate(422.145 166.562)"/><path d="m0-29.195-32.308-1.897a3.339 3.339 0 0 0-.2-.006c-.676 0-1.321.2-1.792.56-.374.287-.59.651-.59.997V.356c0 .355.213.642.391.82.457.456 1.198.727 1.982.727h.008c.219 0 .416-.015.59-.047l.135-.024L0-.034v-29.161Z" style="fill:#53b0c9;fill-rule:nonzero" transform="translate(434.758 161.417)"/><path d="M0-5.021a86.556 86.556 0 0 1 5.323 17.645h115.49c.34-1.207 1.083-2.306 2.163-3.134 1.396-1.067 3.182-1.594 5.031-1.486l12.677.744V-.908a6.761 6.761 0 0 1 6.754-6.753c3.722 0 6.751 3.029 6.751 6.753V9.541l5.859.344v-27.53H-6.623A87.29 87.29 0 0 1 0-5.021" style="fill:#53b0c9;fill-rule:nonzero" transform="translate(274.71 117.769)"/><path d="M0-12.376c-1.21 0-2.194.984-2.194 2.194v9.924L2.192 0v-10.182c0-1.21-.983-2.194-2.192-2.194" style="fill:#53b0c9;fill-rule:nonzero" transform="translate(422.147 127.043)"/><path d="M0 8.138c-.665-9.299 1.795-18.346 6.976-25.93h-26.984v2.286c0 5.033-4.094 9.127-9.127 9.127-.333 0-.661-.02-.985-.055V25.93H5.516A40.721 40.721 0 0 1 0 8.138" style="fill:#53b0c9;fill-rule:nonzero" transform="translate(130.12 292.373)"/><path d="M0 65.078h3.09c7.028 0 12.747-5.718 12.747-12.747v-2.553H1.545a2.28 2.28 0 0 1 0-4.559h14.292v-5.414H1.545a2.28 2.28 0 0 1 0-4.559h14.292v-5.414H1.545a2.28 2.28 0 0 1 0-4.559h14.292v-5.414H1.545a2.28 2.28 0 0 1 0-4.559h14.292v-2.553C15.837 5.718 10.118 0 3.09 0H0c-7.029 0-12.747 5.718-12.747 12.747v39.584c0 7.029 5.718 12.747 12.747 12.747" style="fill:#53b0c9;fill-rule:nonzero" transform="translate(377.441 196.149)"/><path d="M0 77.109c0 15.991-12.416 29.127-28.113 30.298v11.661h10.629a2.28 2.28 0 1 1 0 4.559h-25.817a2.28 2.28 0 0 1 0-4.559h10.629v-11.661c-15.696-1.171-28.113-14.307-28.113-30.298V66.938a2.28 2.28 0 0 1 4.559 0v10.171c0 14.244 11.589 25.833 25.834 25.833 14.244 0 25.833-11.589 25.833-25.833V66.938a2.28 2.28 0 0 1 4.559 0v10.171Zm-49.243-38.873c0-9.543 7.763-17.306 17.306-17.306h3.089c9.543 0 17.306 7.763 17.306 17.306V77.82c0 9.543-7.763 17.306-17.306 17.306h-3.089c-9.543 0-17.306-7.763-17.306-17.306V38.236ZM19.52-4.366V6.118a6.76 6.76 0 0 1-6.753 6.753 6.76 6.76 0 0 1-6.752-6.753v-9.691l-11.893.698c-.402.064-.83.091-1.264.095-1.99 0-3.885-.75-5.197-2.06a5.87 5.87 0 0 1-1.522-2.574h-115.485a86.556 86.556 0 0 1-5.323 17.645c-4.408 10.423-10.719 19.784-18.757 27.821-8.038 8.038-17.398 14.349-27.822 18.758-10.792 4.565-22.255 6.879-34.071 6.879-11.815 0-23.278-2.314-34.071-6.879-10.423-4.409-19.784-10.72-27.821-18.758-8.038-8.037-14.349-17.398-18.758-27.821-4.565-10.792-6.879-22.256-6.879-34.071 0-11.815 2.314-23.279 6.879-34.071a87.389 87.389 0 0 1 6.623-12.624h-20.032V74.31c.323-.035.651-.056.984-.056 5.033 0 9.128 4.095 9.128 9.127v2.286h54.125v-.003c0-5.033 4.094-9.127 9.127-9.127s9.127 4.094 9.127 9.127v.003l2.289-.003c0-5.033 4.094-9.127 9.127-9.127s9.127 4.094 9.127 9.127v.003l2.289-.003c0-5.033 4.094-9.127 9.127-9.127s9.127 4.094 9.127 9.127v.003h30.133c5.925 0 17.325-4.186 29.752-10.925 12.458-6.755 23.757-14.893 29.488-21.238l.091-.095a6.827 6.827 0 0 1 7.452-1.441 6.828 6.828 0 0 1 4.235 6.294v73.053a6.83 6.83 0 0 1-4.2 6.29c-.83.375-1.748.57-2.658.555h-.012a6.89 6.89 0 0 1-4.821-1.985l-.085-.089c-5.765-6.369-16.881-14.306-29.734-21.231-12.516-6.744-23.823-10.934-29.508-10.934h-3.018a40.64 40.64 0 0 1 7.124 22.82c-.009 7.477-2 14.642-5.716 20.903H25.38V-4.71l-5.86.344Z" style="fill:#53b0c9;fill-rule:nonzero" transform="translate(409.378 170.659)"/><path d="M0 17.942c7.621 7.621 16.494 13.603 26.374 17.782 10.227 4.326 21.093 6.519 32.295 6.519 11.202 0 22.067-2.193 32.295-6.519 9.88-4.179 18.753-10.161 26.374-17.782 7.62-7.62 13.603-16.494 17.782-26.374a81.797 81.797 0 0 0 4.874-15.869h-5.858c-1.004 4.656-2.406 9.221-4.279 13.648-3.891 9.201-9.462 17.463-16.556 24.558-7.095 7.094-15.358 12.665-24.558 16.556-9.527 4.03-19.645 6.073-30.074 6.073-10.429 0-20.548-2.043-30.074-6.073-9.201-3.891-17.463-9.462-24.558-16.556C-3.057 6.81-8.628-1.452-12.52-10.653c-1.639-3.875-2.919-7.856-3.895-11.909l-5.963-.4a82.23 82.23 0 0 0 4.596 14.53C-13.603 1.448-7.621 10.322 0 17.942" style="fill:#53b0c9;fill-rule:nonzero" transform="translate(135.391 187.546)"/><path d="M0-23.735h-153.994c-1.927 0-3.555 1.156-3.555 2.524v18.686c0 1.369 1.63 2.525 3.559 2.525H0v-23.735Z" style="fill:#53b0c9;fill-rule:nonzero" transform="translate(395.309 158.687)"/><path d="M0-45.839c-.339 0-.667.043-.985.113v31.736c.318.07.646.113.985.113a4.573 4.573 0 0 0 4.568-4.568v-6.845h41.167l-3.269 3.772c-6.357 7.337-9.476 16.709-8.784 26.392.473 6.607 2.685 12.818 6.372 18.117H52.59a28.064 28.064 0 0 1-1.813-1.679c-5.132-5.213-7.927-12.113-7.87-19.428a27.463 27.463 0 0 1 6.333-17.301 27.456 27.456 0 0 1 15.86-9.375l2.712-.524v13.718a4.574 4.574 0 0 0 4.568 4.569 4.574 4.574 0 0 0 4.568-4.569V-25.29h11.406v13.692a4.575 4.575 0 0 0 4.569 4.569 4.574 4.574 0 0 0 4.568-4.569V-25.29h11.407v13.692a4.574 4.574 0 0 0 4.568 4.569 4.574 4.574 0 0 0 4.568-4.569v-13.718l2.712.524c14.827 2.864 24.56 17.258 21.696 32.085a27.45 27.45 0 0 1-9.197 15.698h12.437c4.269-6.084 6.582-13.311 6.59-20.896a36.058 36.058 0 0 0-8.931-23.604l-3.31-3.781h12.695c6.491 0 18.33 4.291 31.67 11.479 13.25 7.139 24.795 15.408 30.903 22.131a2.315 2.315 0 0 0 1.587.629l.026-.001.026.001c.254.002.51-.049.74-.156l.089-.039a2.276 2.276 0 0 0 1.417-2.102v-73.031a2.273 2.273 0 0 0-1.417-2.091l-.017-.008a2.28 2.28 0 0 0-2.453.443c-6.159 6.793-17.607 15.061-30.646 22.132-6.188 3.356-12.284 6.178-17.631 8.163-5.925 2.199-10.734 3.314-14.294 3.314h-34.692v-4.562a4.573 4.573 0 0 0-4.568-4.568 4.573 4.573 0 0 0-4.568 4.568v4.562H97.491v-4.562a4.573 4.573 0 0 0-4.568-4.568 4.574 4.574 0 0 0-4.569 4.568v4.562H76.948v-4.562a4.574 4.574 0 0 0-4.568-4.568 4.573 4.573 0 0 0-4.568 4.568v4.562H4.568v-6.845A4.573 4.573 0 0 0 0-45.839" style="fill:#53b0c9;fill-rule:nonzero" transform="translate(100.985 295.312)"/><path d="M0 37.036a22.883 22.883 0 0 0 7.814-13.22C10.022 12.386 3.249 1.265-7.558-2.231V5.79c0 5.033-4.095 9.128-9.128 9.128-5.032 0-9.127-4.095-9.127-9.128v-9.133h-2.289l.001 9.133c0 5.033-4.095 9.128-9.128 9.128-5.032 0-9.127-4.095-9.127-9.128v-9.133h-2.289V5.79c0 5.033-4.094 9.128-9.127 9.128s-9.127-4.095-9.127-9.128v-8.018a22.895 22.895 0 0 0-10.508 7.115 22.881 22.881 0 0 0-5.278 14.42 22.68 22.68 0 0 0 6.559 16.195 22.792 22.792 0 0 0 7.071 4.877H-5.45A22.78 22.78 0 0 0 0 37.036" style="fill:#53b0c9;fill-rule:nonzero" transform="translate(231.136 277.924)"/></svg>