<svg xmlns="http://www.w3.org/2000/svg" width="1933" height="1933"><path d="M1048 202.2c-12.3 5.4-23.9 21.4-31.9 31.8-24.4 31.9-41.1 69.2-54 107-5.5 15.8-5 30.7-5.4 47 0 4.2-2 10.6-6.8 11.6-12.4 2.4-16.7-28.9-18.9-36.6-8.5-30-16-61.3-32.4-88-6.2-10-13.6-24-27.6-22.4-13.1 1.6-20.5 14-28 23.4-17.3 22-32.4 45.4-48.7 68-19.6 27-47 46.5-72.3 67.8-29.7 24.9-58.2 52.3-93 70.3-20.4 10.6-29.7-9.1-40.8-23.1-16.6-20.9-33.7-38-61.2-39.9-26.4-1.8-40.5 9.7-64 17.5-30 9.9-50.2 7.7-73.3 34.4-6 7-27.3 37.5-39.2 25.7-5.1-5.1 7.1-10.8 9.7-14 5.5-6.8 6.8-19.9 2.7-27.6-7.8-14.5-34.4-12.3-44.4-1.8-32.7 34.1 14 68.7 48.5 63.3 26.5-4 35.7-33.5 54-49 3.8-3.1 21-16.9 23.2-5.5 1.5 7.5-9.8 25.5-12 33.9-2.3 8.9.2 21.5-5.8 28.9-8 10.1-51.8 14-65.4 15.2-26.3 2.4-52.9-4.4-79-6.9-26.9-2.5-53.5-.8-80-6.9-23.6-5.4-67-15.5-88 1.3-11.4 9.3-6.5 25-1.5 36.4 12.4 28.8 28.5 56.7 44 84 4.1 7.1 20.1 19.4 17.5 28-4 13-25.9 18.8-36 25.8A310.5 310.5 0 0071.3 765c-55.5 72.3-68 175-29.5 257a68 68 0 0017.2 25.5c9.7 8 23.6 12.9 28.4 25.5 4.5 12.1-.8 25.5 1 38 4.8 31.6 28 67 55.6 82.7 39.3 22.3 66.2 19.9 109 12 14.8-2.8 45.3-21 58.8-10.8 9.2 6.9-13.8 43.4-14.5 56.1-2.6 45 48.4 81.1 89.7 79 25.6-1.4 35.7-17 47.4-37 3.3-5.7 11.8-12.5 8.7-19.9-2.7-6.3-12.8-5.1-18.1-8.2-5.6-3.3-10.2-7-17-6.8-11.7.5-22.2 10.9-18 22.9 3.4 9.3 24 13.5 24 20 0 15-30 18.4-40 15.8-41.5-10.7-80.2-50-51.9-93.8 19-29.3 64 22 89.7-2.3 10.7-10.1 5.7-28.4-4-37.4-3.6-3.3-12.8-6.3-12.7-12.3.1-7.8 12.9-6.8 17.9-7 18.9-.8 36.6-10.5 56-9.9 9.4.3 44.8 4.9 46.2 17 .8 6-9.3 9-13.2 11.8a108 108 0 00-25.9 31.1c-28.4 46 4.4 109.2 57.9 112 22.6 1 46.5-2.5 64-18.4 24.4-22.1 17.3-54.8-12-68.1-28.4-13-69.5 12.2-39.7 41.2 5.8 5.7 22.8 6.6 20.9-5.7-1-6.9-9.7-9.5-13-15.1-1.8-3.1-1-6 1.2-8.6 12.6-14.3 37.9.6 37.3 17.7-1.3 36.3-46.5 52-74.7 32.7-49.3-33.8-23.2-102.2 30-113.2 9.3-2 18 6 25 11 14.4 10.5 31.2 17.3 46 27.3 22.3 15.1 22.4 29.5 28.8 53.2 7.2 26.8 15 61.3-7.9 85-32.2 33.1-86.4 37.9-126.9 55.9-39 17.3-70.2 54-91.5 90.1-7.1 12-4.3 26-8.2 39-5.7 18.7-14.8 34-16.2 54-2.8 41 29.6 108.3 69.9 122.8 16.7 6 26.8-12.6 35.4-23.8 3.3-4.3 10.9-9.7 8.7-16-3.3-9.6-28-17.9-36.1-25.2-22.9-20.8-32.5-43.5-42.8-71.8-3.5-9.5-10-20.6-8.7-31 3.6-27 41.3-51.5 63.5-63 67.6-35.2 142.3-36.5 196.8-97 16-17.7 27.9-40.9 29.1-65 .5-9.8-6-34.9 4.3-40.6 7.3-4 14.7 4.8 19.8 8.7a226 226 0 0050 26.9c32.7 14.2 83.4 4.8 116-7.3 35.4-13 51.2-44.3 61.3-77.7 2.3-7.4 6.4-42.5 14.8-43.1 11-.9 20.2 21.9 25.6 29.1 19 25.5 49.8 38.7 78.3 50.5 8.9 3.7 31-.2 36 8.7 10.1 17.9-28 10-30 14.9-3 7.1 4.1 14.3 6 20.9 5.5 21 5.6 45.1 25 59.1 21.6 15.6 55.3 17.5 80 9.4 8.7-2.8 18.5-16.4 28-14.7 9.2 1.7 13.3 14.4 17.7 21.2 8 12.3 19.7 24 32.3 31.5 14.6 8.7 31.9 9.8 48 14 45.5 11.9 112.7 43 97.2 100.5-4.3 16.1-28.4 48.5-48.2 38.9-17.1-8.3-28-30-42-42.7-34.3-31.2-66.2-49.5-112-56-17-2.3-43-9.3-56.7 5-9.4 9.7-9.3 26.2 4.7 31 28.2 9.7 60.8 2 90 12.5 34.3 12.4 69.9 34.8 101 53.8 26.7 16.4 39.7 33.3 73 20.4 61.9-24 56.5-109.7 8-143.7-46.3-32.4-101.5-28.4-151-49.2-45.4-19.2-44.1-55.4-15.5-91 9-11.1 18.6-22.5 29.5-31.8 4.8-4.1 10.6-5.7 15.6-.9 9.4 9.2 10 25.7 17 36.7 6.2 9.8 17.8 14.1 24 24 29 46.4 124.4 56.7 166.4 24.7 19.1-14.5 42-42.3 46.3-66.7 9-50.6-37.2-90.6-80.3-104a222 222 0 00-86-9.8c-10.4 1-20.2 11.3-30 10.4-12.5-1-7.8-14.1-3.1-20.6 18-24.9 52.2-26.7 76.1-42.8 6.8-4.6 17.4-20.8 27-17.9 6.4 2 6.5 10.6 9.3 15.7a83.3 83.3 0 0020.7 22.3c37.5 31 105.7 54.2 152 27.8 25.3-14.5 26.7-45.4 43.2-66.1 3.5-4.5 14.5-19.8 6.2-24.8-7.7-4.8-14.4 15.5-22.3 15-3.8-.4-20.4-26-25.9-30.3-2.4-1.9-4-4.7-2.2-7.6 4.6-7.3 19.4-7.3 27-8.7 19.4-3.6 40.2-7.7 56-20.2a84 84 0 0028.5-49.4c2-12.7-2.8-27.4 6.8-37.8 11.5-12.5 32.3-10 46.7-17.3 22.7-11.3 43-34 58-53.9 14.6-19.3 29.7-42.4 36-66 3.6-13.3 1-26.6 1-40 0-46.5-9.5-95.6-40.5-132a119.4 119.4 0 00-36.5-30.7c-10.4-5.1-26.5-7.3-32.7-18.3-8.7-15.5 9.4-43 14-58 2.4-8 5.4-18.5-3.3-23.8-9.7-5.8-23.6-2.8-34-1.5-24 3-47.7 8.8-72 9.3-8.8.2-22 4.7-29.7-1.2-8.5-6.5 20-34 23.5-41.8 9.2-20 12.3-44.2 3.7-65-12-29-49-42.8-76.5-27-37.1 21.1-21.7 81.7 23 73.6 20.4-3.7 30.2-35.2 9-45.2-2.2-1-4.6-1.7-7-2-24.4-2.8 4.2 18.8 1.5 25.4-5.1 12.7-28.5 2.6-31.5-6.8-6.4-20.5 20.7-44.4 40-40.6 28 5.4 38.5 42.8 31 66.6a82.6 82.6 0 01-75 58c-35.6 1.6-73.2-13.9-107-23.3-39.8-11-76.6-29.2-114-46.4-72.8-33.4-145.3-72.7-203-129.3-13.2-13-29-20.4-43-32.3-24.3-20.7-46.2-44-70-65.1-8.7-7.7-26.1-31.5-40-25.4m0 16.3c11.8-2.6 19.5 7 27 14.5 17.1 17.1 34.9 33.7 53 49.8 71.2 63.4 145.3 126 231 169 98.6 49.3 204 92.4 316 96.2 30.5 1 62.7-6.9 93-10.4 7.8-1 27.8-5.9 32.6 2.6 3.8 6.6-3.7 13.3-6.3 18.8-7.2 15.3-7.7 32.3-16.9 47-16.1 25.6-29.9 53.5-47.6 78-21.5 29.7-47.5 55.6-68.1 86-17.3 25.5-35.8 51.1-46.9 80-14.9 38.8-19.2 76.1-40.8 113-17.3 29.5-35 60.3-60 84-13 12.2-33.7 17.8-44.6 32-5.3 6.9 2.7 13 2.9 20 .2 6.5-6 11.9-10.3 15.9-27.2 25.1-58.2 34-91 46.6a610 610 0 00-79 39c-42.8 24-80.3 61-130 70.5-54.7 10.5-120.1-9.9-154.3-55-13-17-14.4-38.6-17.8-59-6.5-39.2-9.5-79.2-18.3-118-6.7-29-25.3-52.8-36.6-80-5.8-14 .7-28.5-4.6-42-8.4-21.6-27-38.1-35.3-60-16.1-42.3-9.8-93.5-2.8-137 7.3-45.3 29.4-82 47.3-123 3.5-8 1-17 4.3-25 7.9-18.7 23.9-31.7 25.9-53 5.4-57.1-7.7-118.8 3.9-175 4.5-21.9 17.9-41.2 27.5-61 9.7-19.9 22-59 46.8-64.5m-172 49.1c22.4.8 26.6 53.9 31.3 69.4 19 63.5 68.8 158.8 32.3 223-5.8 10.2-20.8 6-24.2 13.3-5.5 11.4 17.2 24.6-4.4 35.9-13.5 7-31.5-6.5-45-8.1-28-3.2-57.5.4-84 10-27.8 10-48.3 31.6-66.6 53.9-5.7 6.9-18.1 17-13.8 27 6 14 20.6 13.7 33.4 15.6 29.1 4.4 73.8 6.7 101-5.9 7.3-3.4 40.1-23.7 45.6-19.8 9.1 6.4-3.1 18.5-5.4 25.1-7.2 20.7-9 49.2-9.2 71-.6 51.4 18.5 101.5 41.3 147 11.5 23 32.2 50.3 36.4 76 3.4 20.5 15.1 36.1 19 56 1 5 3.7 17-3 19.5-7.5 2.7-15.4-17.7-18.4-22.5-16-24.8-34.7-51.6-60.3-67.1-54.4-33-121.2-4.4-172 22-52.9 27.4-51 104.8-36.9 154.1 5.3 18.3 9 37 24.9 49.4 57.2 44 89.5-52.9 135-65.6 28.6-8 56.5 15.9 88 6 17-5.5 28.3-21 37-35.8 1.8-3.2 6-14.4 11.3-10.1 15.8 12.7-11.1 40.8-11.2 52.1 0 14.2 6 27.6 4.7 42-5.8 63.3-42.4 106.7-105.8 117.2-60.5 10-95.7-16.6-144-48.5-26-17.1-52.9-32.5-79-49.4-38-24.4-78.7-42.4-117-65.1-23.7-14-45-32.6-68-47.9-39-26-77.7-52.6-104-92.3-19.2-29-23-56.3-32.3-88-15.6-52.7-32-109-58-159-9.3-18-23.5-33.2-34.7-50-23-34.5-45-69.5-68-104-12-18-36.2-45.1-28.9-69 5.2-16.8 31.5-4.7 42.9-3.2 43.1 5.6 87.6 8.6 131 11.3a748 748 0 00199-14.6c11.3-2.3 22.9-.2 34-3.3 78-21.4 155.6-68 216-121 33-28.9 68.5-64.7 90.1-103.2 8.4-15 18.5-44.1 39.9-43.4M515 433.3c24.3-2.6 49 12.8 61.9 32.7 12.6 19.7 8.1 41.9-17.9 44.6-25 2.7-31.5-29.5-41.8-45.6-6-9.3-40.6-24.5-11.2-30.3 3-.6 6-1 9-1.4m-179 24.3c18.8-5.6 13.4 19.3 0 23.5-17.3 5.3-12.2-19.9 0-23.5m134 8c28.3-7.6 55.6 54.8 24 63.9-12.1 3.4-30.1 3-37.8-8.5-8.9-13.6-4.3-50.6 13.8-55.4m649 56.4c7.4 6.6 18.8 6.8 28 9.7 20 6 39.7 11.7 58 22.3 3.8 2.2 20.7 13.2 24.4 7.2 5-8-17.6-17.7-22.4-19.7-27.3-11.8-57.8-23.5-88-19.5m-324 16.4c-5.8.7-41.7-.6-40.6 7.6 1.2 8 16.7 4.3 21.6 4 23.5-1.1 47.5 4.2 71 5 8.6.3 21.6 6.3 29.6 2 3.9-1.9-23.7-10.8-28.6-13.5-14.5-7.8-37.1-6.9-53-5m93 23.5c2.4 1.4 4.3 1.8 7 2v-2h-7m199 23.4c-14.8 1.9-55.8 4.1-58.6 23.6-2.3 15.8 23.2 32.5 33.6 40.8 38 30.5 86.4 57.6 137 49.3 45.8-7.6 25.1-51.7 2.8-76.1-25.1-27.5-47.5-29.8-81.8-33.2-11.4-1.2-21.3-5.8-33-4.4m177.4 55.1c-7.2 3.8.3 28.1.4 34.5.5 27-4 60.2-12.2 86-.9 2.9-10.5 25.6-2.4 23.7 8.8-2.2 11.3-16.6 14.2-23.7 11.1-26.6 17.5-55.5 10.5-84-1-4-4.9-39.4-10.5-36.5m521.6 7c8.3-1.7 15.2 4.6 22 8.2a117 117 0 0151.8 59.3c24.4 56.7 21.2 102-6.5 157-11.6 22.9-33.2 50.8-60.3 55.6-9.5 1.6-13.4-3.6-14-12.6-1.5-29.7 4.8-54.6-11-82-10.7-18.5-22.7-37.1-41-48.9-9-5.7-30.8-8-35.5-18.3-4.4-9.4 15-22.9 20.2-28.8 16.9-19.3 35-39 48.3-61 6-10 13.3-26 26-28.5M400 667c-23.6-.1-46.5 39.6-60 55-1.6 1.9-17.8 20.4-9.7 21.1 6.7.6 12.9-11 16.8-15 15-15.4 33-27.6 47.9-43.1 2.4-2.5 16.3-18 5-18m1158 51c-5.1-8.5-14.1-6.4-22-10.6-9.6-5-17.5-12.7-28-16-13.6-4.3-28.3-2.6-42-6.3-7.4-2-29.2-12.5-33 0-2.8 9.7 17.6 9.8 23 9.9 22.7.2 46.4 5.4 68 12 11.5 3.6 21.8 10.7 34 11m-1090-6.6c-43.6 5.4-82.4 24-109.1 59.6-6.3 8.4-19.3 17.7-19.7 29-.2 9.9 10.2 15 17.8 18.7 19.4 9.3 43.1 8.3 64 6 40.8-4.5 105.1-26 127.5-62.7 21.4-35.1-55.8-53.6-80.5-50.6m1094 9.6c2.3 1.9 4 2.5 7 3-2-2.2-4-2.6-7-3M205 745.4c12.6-.9 19.3 8.9 26.4 17.6 16 19.5 24.7 41.2 32.2 65 22.5 71.1 63 146 6 211-13 14.9-32.2 29.4-52.6 30.9-23.7 1.7-83.5 3.8-92-25.9-3.7-13 1.7-27.4 7.2-39 1.7-3.5 5.8-10.9 1.3-13.9-4.8-3.1-10.7 4.8-13.2 8-7.6 9.6-13.9 36.2-30.3 23.7-21-15.9-32.4-44.3-39.4-68.8-4.6-16-16.6-40.7-15.3-57 .6-8.4 6.8-15 9.1-23 20-68.4 88.2-123.7 160.6-128.6m403.3 5.9c-6 1.5-1 12.5.5 15.7 6.7 14.5 12.3 29.6 19.1 44 1.7 3.6 5.7 11.8 10.8 10.8 6.4-1.3 2.1-14.3.9-17.8-5.5-15-9-30.6-19.5-43-2.5-3-7-10.8-11.8-9.7m838.7-.9c-16.7 2-53.2 2.4-62.2 19.6-7.5 14.5 12.6 36 22.3 44.6 29.3 26.5 85 51.4 124.9 46 12-1.7 33.3-4.5 37-18.6 3-11.2-19.7-44.7-26.8-54-16.4-21.4-68.4-40.7-95.2-37.6m212 56.1c13.2-3.2 24 9.1 33 16.8 26.2 22.5 42.5 55.8 59 85.7 7.5 13.3 10 33.4-8 38.8-34.7 10.4-68.8-.6-100-16-9.3-4.7-24.3-7.8-29.4-17.8-4.2-8.3 2.5-19 4.6-27 5.8-22 11.7-42.7 24-62 4.3-6.6 8.5-16.4 16.8-18.5M1022 853c24.8 10.7 13 56.2 13 79 0 54.5-4.7 104.3 9 157 4.9 18.3 7.4 34.3 18.9 50 9 12.4 19.6 23.8 32.1 32.8 18 13 42.7 14 64 13.3 70.3-2.2 128.5-58.8 178-102.9 19.2-17 35.5-37.3 55-54 8.7-7.4 24.4 1.4 22.7-15.2-1-10-3.6-28.2-17.7-26.2-14.3 2-23.7 16.9-37 21.8-28.7 10.8-59 27-90 29.3-26.6 1.9-63.9-11.6-88-22.3-56.2-24.9-85.4-84.1-107.4-137.6-5.1-12.5-7.2-29.6-13.3-40.9-8.3-15.2-34.7 7.3-39.3 15.9m167 5.7c-13.5 2.8-27.8 21.2-33 33.3-1.3 3.3-5.9 19 1.2 19 8.8 0 29.7-34.5 34.5-42 2.8-4.3 5.7-12.1-2.7-10.3m-391 27.7c-4.7 3.4-2 27.3 4.4 22.6 5.8-4.2 0-25.9-4.5-22.6m-149.2 33c-8.2 4.7 5.9 27.3 9.7 31.4 11 11.8 46.6 11.4 58.4.7 5.7-5.3 2.4-11.2-4.8-11.3-13.5-.2-26.8 11.2-40 2.7-4.9-3.2-17-27-23.3-23.5m535.3 9.3c-6.8 1.4-8.6 7-3.8 12 15.5 15.6 51.7 45.6 76.6 34.4 5.8-2.6 3.5-10-1-12.5-7.3-4-16.3 3.4-24.8 0-15-6.1-30.4-37-47-33.9M765.5 930c-3.7 1.7.2 5.9 3.2 4.9 4.3-1.5.3-6.4-3.2-4.9m834.5 28.5c12.7-1.8 27.2 6.1 40 7.3 25.7 2.3 52.3-.2 78-.8 7.3-.2 31.9-6.3 33.5 5.1 2.1 14.4-24.8 27-35.5 31-34.5 12.6-71 13-107 17.3-12.4 1.5-26.5 10-39 8-11-1.6-3-13.5-.7-19.4 5.3-14.2 12.4-45.9 30.7-48.5m-294 4.7c-6.9 2.1-22.3 26.2-9 23.1 8.6-2 18-26 9-23.1m-986 53.5c10.6-2.4 29 18 25 28.3-3.7 9.8-18.6 11.9-26 18.3-13.8 12-24 29.9-28 47.7-3.4 14.3 14.2 49.5-5 55.4-36.3 11.3-95.4 2-121.3-26.5-7.2-8-26.3-28.7-19.3-40.7 6.8-11.8 42.2-.1 53.6-.2 34.2-.2 64.6-13 86.7-39 7.6-8.9 23.6-40.9 34.3-43.3m49 50c16.5 1.4 44.1 31 57 41.5 5.3 4.3 15.4 10.6 10 18.6-5.3 8-18.3 9.8-27 11a416.1 416.1 0 00-59 11.7c-9.3 2.8-16.7 10.3-27 9.3-17.5-1.8-21-18-14.2-31.8 10.1-21 31.8-62.5 60.2-60.2m1233 7.5c7.2-.7 27.4-3.5 31.6 4 3.6 6.5-6.9 11.2-10.3 14.9-6 6.3-7.8 15.7-4.8 23.8a46.4 46.4 0 0027.5 27.1c6.5 1.9 17.2-1.5 22 4.5 4.4 5.4-2 13.2-5.2 17.4a59.3 59.3 0 01-38.8 22.5 131 131 0 01-109.4-41.5c-10.7-12.4-24.1-34-12.7-50 7.3-10.2 18.9-10.2 30.1-11.4 23.5-2.7 46.5-8.8 70-11.3m40 21a29.1 29.1 0 0129.2 15.7c3.6 7.6 2.5 20.5-7.2 22.6-21 4.6-50.4-34-22-38.2m-1273 92a45 45 0 0132.8 7.5c10 8.4-1.5 19.7-10.8 21.6-19.6 3.8-55-23.5-22-29m946 18c13.2-2.7 8.7 16.6 4.6 22.5-11.3 16.5-29.8 26.8-43.6 41-4.3 4.5-10 14.7-17 15.2-10.8.7-19.3-27-14.6-34.9 3-5 11.8-8 16.6-11.3 14.1-10 37.1-29 54-32.4m-229.5 5.7c-7.4 5.2 16.4 19.8 22.5 13.5 4.5-4.8-16.8-17.5-22.5-13.5m360.5 15.2c28.9-.4 77.8 23.6 92 48.5 23.2 40 14.1 83.2-37 85-39 1.3-79.5-8.3-107.6-37.2-12.9-13.3-38.5-42.3-32.6-62.8 5.5-19.3 32.2-25.2 49.2-28.4 11.5-2.2 24.3-4.9 36-5m-1036 47.7c3.9-.6 4.6 6.8 1 7.4-3.9.6-4.6-6.8-1-7.4m796 4c24-3.3 35.5 24 27.5 43.7a76 76 0 01-65.5 47.9c-14.2 1-29.2.8-41-8.3-5-3.8-13.3-13-4.8-18 10-5.9 22.6 4.4 32.8 4.9 7.7.3 14.8-6.6 20-11.6 17-17-4-28.3 1.6-45.7 2.8-8.8 21.6-11.8 29.4-12.8m-62 23c22.9-1 28.7 26.3 4 27.5-7 .4-19 2-24.4-3.6-11-11.1 11.4-23.4 20.4-23.8z" fill="#060606"/></svg>