<svg width="500" height="500" xmlns="http://www.w3.org/2000/svg"><style>@media (prefers-color-scheme:dark){.a{fill:#f0f0f0}}</style><path class="a" d="M270.737 58.264c-3.238 1.44-6.292 5.704-8.398 8.476-6.423 8.502-10.819 18.444-14.215 28.518-1.448 4.211-1.316 8.183-1.422 12.527 0 1.12-.527 2.825-1.79 3.092-3.264.639-4.396-7.703-4.975-9.755-2.238-7.996-4.212-16.338-8.53-23.455-1.631-2.664-3.58-6.396-7.265-5.97-3.448.427-5.397 3.732-7.371 6.237-4.554 5.864-8.529 12.1-12.821 18.124-5.158 7.196-12.372 12.393-19.032 18.07-7.817 6.637-15.321 13.939-24.482 18.737-5.37 2.825-7.818-2.425-10.74-6.157-4.37-5.571-8.872-10.127-16.111-10.634-6.95-.48-10.662 2.585-16.848 4.664-7.897 2.639-13.215 2.052-19.296 9.169-1.58 1.865-7.187 9.994-10.319 6.849-1.343-1.359 1.869-2.878 2.553-3.731 1.448-1.812 1.79-5.304.711-7.356-2.053-3.865-9.056-3.278-11.688-.48-8.609 9.088 3.685 18.31 12.767 16.871 6.976-1.066 9.398-8.929 14.216-13.06 1.001-.826 5.527-4.504 6.107-1.465.395 1.998-2.58 6.796-3.159 9.035-.605 2.372.053 5.73-1.527 7.702-2.105 2.692-13.636 3.731-17.215 4.051-6.924.64-13.927-1.173-20.797-1.838-7.082-.667-14.084-.214-21.06-1.84-6.213-1.439-17.637-4.131-23.166.347-3.001 2.478-1.711 6.663-.395 9.701 3.265 7.676 7.502 15.112 11.583 22.388 1.08 1.892 5.291 5.171 4.607 7.463-1.053 3.465-6.818 5.011-9.477 6.877a82.138 82.138 0 0 0-17.559 16.844c-14.61 19.27-17.901 46.641-7.766 68.496a18.134 18.134 0 0 0 4.529 6.797c2.553 2.132 6.212 3.438 7.476 6.796 1.185 3.225-.211 6.797.263 10.128 1.264 8.423 7.371 17.858 14.637 22.042 10.345 5.944 17.426 5.304 28.694 3.198 3.895-.746 11.924-5.597 15.478-2.878 2.422 1.839-3.633 11.567-3.816 14.952-.686 11.994 12.741 21.615 23.612 21.056 6.74-.373 9.398-4.532 12.478-9.862.869-1.519 3.106-3.332 2.291-5.304-.712-1.679-3.37-1.359-4.765-2.185-1.474-.88-2.686-1.866-4.475-1.812-3.081.132-5.845 2.905-4.739 6.103.895 2.478 6.318 3.598 6.318 5.33 0 3.998-7.898 4.904-10.53 4.211-10.925-2.852-21.112-13.326-13.662-25 5.002-7.809 16.847 5.864 23.613-.612 2.816-2.693 1.5-7.57-1.053-9.969-.947-.879-3.37-1.679-3.343-3.278.027-2.079 3.396-1.812 4.712-1.866 4.975-.213 9.634-2.798 14.742-2.639 2.474.081 11.793 1.306 12.161 4.532.212 1.599-2.447 2.398-3.474 3.145a28.734 28.734 0 0 0-6.819 8.288c-7.476 12.261 1.159 29.105 15.243 29.851 5.949.267 12.241-.666 16.848-4.904 6.423-5.89 4.554-14.605-3.16-18.15-7.476-3.465-18.295 3.251-10.45 10.981 1.526 1.519 6.003 1.759 5.502-1.52-.264-1.838-2.554-2.531-3.423-4.024-.474-.826-.263-1.599.316-2.292 3.317-3.812 9.977.16 9.819 4.718-.342 9.674-12.24 13.859-19.665 8.715-12.977-9.009-6.106-27.239 7.899-30.171 2.447-.533 4.738 1.599 6.581 2.932 3.791 2.798 8.212 4.611 12.109 7.276 5.87 4.024 5.897 7.863 7.582 14.179 1.894 7.143 3.947 16.339-2.081 22.655-8.476 8.822-22.744 10.101-33.406 14.899-10.266 4.61-18.479 14.392-24.087 24.013-1.868 3.199-1.132 6.93-2.158 10.395-1.501 4.984-3.896 9.062-4.265 14.392-.736 10.928 7.792 28.865 18.401 32.729 4.396 1.6 7.055-3.358 9.319-6.342.869-1.147 2.869-2.586 2.291-4.265-.87-2.559-7.372-4.771-9.504-6.717-6.028-5.543-8.555-11.593-11.267-19.136-.921-2.532-2.632-5.491-2.29-8.262.948-7.197 10.871-13.726 16.717-16.791 17.794-9.382 37.459-9.728 51.806-25.853 4.212-4.718 7.345-10.901 7.661-17.324.131-2.612-1.58-9.303 1.131-10.821 1.922-1.067 3.871 1.279 5.213 2.318a59.223 59.223 0 0 0 13.162 7.17c8.608 3.785 21.955 1.279 30.537-1.946 9.319-3.464 13.478-11.807 16.137-20.709.605-1.972 1.685-11.327 3.896-11.487 2.895-.24 5.317 5.837 6.74 7.756 5.001 6.796 13.108 10.314 20.611 13.459 2.343.987 8.161-.053 9.477 2.319 2.66 4.771-7.37 2.665-7.898 3.971-.789 1.893 1.08 3.812 1.581 5.571 1.448 5.597 1.473 12.02 6.581 15.751 5.686 4.158 14.557 4.664 21.059 2.506 2.291-.746 4.87-4.371 7.372-3.918 2.42.453 3.5 3.838 4.659 5.65 2.105 3.279 5.186 6.397 8.503 8.396 3.843 2.319 8.397 2.612 12.635 3.731 11.978 3.172 29.669 11.461 25.588 26.786-1.132 4.291-7.476 12.927-12.688 10.368-4.502-2.212-7.372-7.996-11.057-11.381-9.029-8.316-17.427-13.193-29.483-14.925-4.476-.613-11.321-2.479-14.927 1.333-2.474 2.584-2.448 6.982 1.237 8.261 7.424 2.586 16.006.534 23.693 3.332 9.029 3.305 18.401 9.275 26.588 14.339 7.028 4.371 10.451 8.875 19.217 5.437 16.295-6.396 14.873-29.238 2.106-38.299-12.189-8.635-26.719-7.569-39.75-13.113-11.952-5.118-11.61-14.766-4.081-24.254 2.369-2.959 4.896-5.997 7.766-8.476 1.264-1.092 2.791-1.519 4.107-.24 2.474 2.453 2.632 6.85 4.475 9.782 1.632 2.612 4.685 3.758 6.318 6.397 7.634 12.366 32.748 15.112 43.803 6.582 5.029-3.864 11.058-11.273 12.19-17.777 2.368-13.486-9.793-24.147-21.139-27.718a57.741 57.741 0 0 0-22.639-2.612c-2.738.267-5.318 3.011-7.898 2.772-3.291-.267-2.053-3.759-.816-5.491 4.738-6.636 13.742-7.116 20.033-11.407 1.791-1.226 4.581-5.544 7.107-4.771 1.685.533 1.712 2.826 2.449 4.185a22.085 22.085 0 0 0 5.45 5.943c9.871 8.263 27.824 14.446 40.013 7.41 6.66-3.865 7.028-12.101 11.372-17.617.921-1.2 3.817-5.278 1.632-6.611-2.027-1.279-3.791 4.132-5.87 3.998-1.001-.106-5.37-6.929-6.819-8.076-.631-.506-1.053-1.252-.579-2.025 1.212-1.945 5.107-1.945 7.107-2.319 5.108-.959 10.583-2.052 14.743-5.383a22.45 22.45 0 0 0 7.502-13.167c.527-3.385-.737-7.303 1.791-10.074 3.026-3.332 8.502-2.666 12.293-4.612 5.976-3.011 11.319-9.061 15.268-14.365 3.844-5.144 7.82-11.301 9.477-17.591.948-3.545.264-7.089.264-10.661 0-12.393-2.501-25.48-10.662-35.181a31.519 31.519 0 0 0-9.609-8.183c-2.737-1.359-6.975-1.945-8.608-4.877-2.29-4.131 2.474-11.46 3.686-15.458.632-2.132 1.422-4.931-.869-6.343-2.553-1.546-6.212-.747-8.95-.4-6.319.799-12.557 2.345-18.953 2.478-2.317.054-5.792 1.253-7.82-.32-2.237-1.732 5.265-9.061 6.187-11.14 2.422-5.331 3.239-11.78.974-17.325-3.16-7.729-12.9-11.406-20.138-7.195-9.768 5.623-5.713 21.775 6.054 19.615 5.37-.985 7.95-9.381 2.37-12.046a6.367 6.367 0 0 0-1.843-.533c-6.424-.746 1.106 5.01.395 6.769-1.344 3.385-7.503.694-8.293-1.812-1.684-5.464 5.449-11.834 10.53-10.821 7.371 1.44 10.135 11.407 8.161 17.751-2.715 8.844-10.607 15.023-19.744 15.458-9.371.427-19.27-3.705-28.167-6.21-10.478-2.931-20.165-7.783-30.01-12.366-19.165-8.903-38.25-19.377-53.44-34.462-3.475-3.465-7.634-5.437-11.319-8.609-6.397-5.517-12.163-11.727-18.428-17.351-2.29-2.052-6.87-8.396-10.529-6.77m0 4.345c3.106-.693 5.133 1.865 7.107 3.864 4.502 4.558 9.188 8.982 13.952 13.274 18.744 16.897 38.25 33.582 60.811 45.042 25.956 13.14 53.702 24.628 83.185 25.64 8.029.266 16.506-1.839 24.482-2.772 2.054-.266 7.319-1.573 8.583.693 1 1.759-.974 3.544-1.659 5.01-1.895 4.078-2.028 8.61-4.448 12.527-4.239 6.823-7.871 14.259-12.531 20.789-5.66 7.916-12.505 14.819-17.928 22.922-4.553 6.796-9.424 13.619-12.346 21.322-3.922 10.34-5.054 20.282-10.741 30.117-4.554 7.862-9.213 16.071-15.794 22.388-3.422 3.251-8.872 4.744-11.741 8.529-1.395 1.838.71 3.464.764 5.33.052 1.733-1.581 3.172-2.713 4.238-7.159 6.69-15.321 9.062-23.955 12.42a159.834 159.834 0 0 0-20.796 10.395c-11.267 6.396-21.139 16.258-34.222 18.79-14.4 2.798-31.616-2.639-40.619-14.659-3.423-4.531-3.791-10.288-4.686-15.726-1.711-10.447-2.501-21.108-4.817-31.449-1.764-7.729-6.661-14.073-9.635-21.322-1.527-3.732.184-7.596-1.212-11.195-2.21-5.757-7.106-10.154-9.292-15.991-4.238-11.274-2.579-24.92-.737-36.514 1.922-12.074 7.74-21.855 12.452-32.783.921-2.132.263-4.53 1.132-6.663 2.079-4.983 6.292-8.448 6.818-14.126 1.421-15.218-2.027-31.663 1.026-46.641 1.185-5.837 4.713-10.982 7.24-16.258 2.553-5.304 5.791-15.726 12.32-17.191m-45.28 13.086c5.898.213 7.003 14.366 8.241 18.497 5.002 16.924 18.111 42.324 8.503 59.435-1.527 2.718-5.476 1.599-6.372 3.545-1.447 3.038 4.529 6.556-1.157 9.569-3.554 1.865-8.292-1.733-11.847-2.16-7.37-.853-15.136.107-22.112 2.666-7.318 2.665-12.715 8.422-17.532 14.365-1.5 1.839-4.765 4.531-3.633 7.197 1.579 3.731 5.423 3.651 8.792 4.157 7.661 1.173 19.428 1.786 26.589-1.572 1.922-.907 10.555-6.317 12.004-5.277 2.395 1.705-.817 4.93-1.422 6.689-1.896 5.517-2.37 13.114-2.422 18.924-.158 13.699 4.87 27.052 10.873 39.179 3.027 6.13 8.476 13.406 9.581 20.256.895 5.464 3.975 9.621 5.001 14.925.264 1.333.975 4.531-.789 5.197-1.975.72-4.054-4.717-4.844-5.996-4.211-6.61-9.134-13.753-15.873-17.884-14.321-8.796-31.906-1.173-45.278 5.863-13.927 7.303-13.427 27.932-9.714 41.071 1.395 4.879 2.369 9.862 6.554 13.167 15.058 11.728 23.561-14.099 35.538-17.484 7.53-2.132 14.874 4.238 23.167 1.599 4.474-1.466 7.449-5.597 9.74-9.541.473-.853 1.579-3.838 2.975-2.692 4.159 3.384-2.923 10.874-2.95 13.885 0 3.785 1.581 7.357 1.238 11.195-1.527 16.871-11.162 28.438-27.852 31.236-15.926 2.666-25.193-4.424-37.907-12.926-6.845-4.557-13.926-8.662-20.796-13.167-10.004-6.502-20.718-11.3-30.801-17.35-6.238-3.732-11.845-8.689-17.901-12.767-10.266-6.929-20.453-14.019-27.377-24.6-5.055-7.729-6.054-15.006-8.503-23.454-4.107-14.046-8.424-29.051-15.268-42.377-2.448-4.798-6.187-8.849-9.135-13.327-6.055-9.196-11.846-18.523-17.901-27.718-3.159-4.798-9.53-12.021-7.607-18.391 1.369-4.477 8.292-1.252 11.293-.853 11.346 1.493 23.06 2.292 34.484 3.013a194.565 194.565 0 0 0 52.387-3.892c2.975-.613 6.028-.053 8.951-.879 20.533-5.704 40.961-18.124 56.861-32.251 8.687-7.702 18.033-17.243 23.719-27.505 2.211-3.998 4.87-11.753 10.502-11.567m-95.031 44.163c6.397-.693 12.899 3.412 16.295 8.716 3.318 5.25 2.132 11.167-4.711 11.887-6.582.719-8.293-7.863-11.005-12.154-1.58-2.479-10.687-6.529-2.948-8.076.79-.16 1.58-.266 2.369-.373m-47.121 6.476c4.949-1.492 3.527 5.145 0 6.264-4.555 1.413-3.212-5.304 0-6.264m35.275 2.133c7.45-2.025 14.636 14.606 6.318 17.031-3.186.906-7.924.799-9.95-2.266-2.344-3.624-1.133-13.486 3.632-14.765m170.847 15.032c1.949 1.759 4.949 1.812 7.371 2.585 5.266 1.599 10.451 3.119 15.269 5.944 1 .586 5.449 3.518 6.423 1.919 1.316-2.132-4.633-4.718-5.897-5.251-7.186-3.145-15.215-6.263-23.166-5.197m-85.291 4.371c-1.528.187-10.978-.16-10.688 2.026.315 2.132 4.396 1.145 5.686 1.066 6.186-.293 12.504 1.119 18.691 1.333 2.263.079 5.686 1.678 7.791.533 1.027-.507-6.239-2.879-7.529-3.599-3.817-2.079-9.766-1.838-13.951-1.332m24.481 6.264c.632.372 1.132.479 1.843.532v-.532h-1.843m52.387 6.236c-3.897.506-14.69 1.092-15.427 6.29-.606 4.211 6.108 8.662 8.846 10.874 10.002 8.129 22.743 15.352 36.065 13.14 12.055-2.026 6.606-13.78.736-20.282-6.607-7.33-12.504-7.943-21.533-8.849-3.001-.32-5.608-1.546-8.687-1.173m46.699 14.685c-1.895 1.013.079 7.49.106 9.196.131 7.196-1.053 16.044-3.212 22.921-.237.773-2.765 6.823-.632 6.317 2.317-.587 2.975-4.425 3.738-6.317 2.922-7.09 4.607-14.793 2.765-22.388-.264-1.067-1.29-10.501-2.765-9.729m137.31 1.866c2.185-.453 4.001 1.226 5.791 2.185 6.212 3.516 11.032 9.101 13.636 15.805 6.423 15.113 5.581 27.186-1.711 41.845-3.053 6.103-8.739 13.54-15.873 14.819-2.501.426-3.528-.96-3.686-3.358-.395-7.916 1.264-14.553-2.896-21.855-2.816-4.931-5.975-9.889-10.792-13.033-2.37-1.52-8.108-2.133-9.346-4.878-1.158-2.505 3.949-6.104 5.318-7.676 4.449-5.144 9.213-10.394 12.715-16.258 1.579-2.665 3.501-6.93 6.844-7.596m-364.86 5.197c-6.213-.027-12.242 10.555-15.795 14.659-.421.506-4.686 5.438-2.554 5.624 1.764.16 3.397-2.932 4.423-3.998 3.948-4.105 8.687-7.356 12.609-11.487.632-.666 4.291-4.798 1.317-4.798m304.84 13.593c-1.343-2.265-3.712-1.706-5.792-2.825-2.527-1.333-4.607-3.385-7.371-4.264-3.58-1.147-7.45-.693-11.057-1.679-1.947-.533-7.686-3.332-8.686 0-.737 2.585 4.633 2.611 6.054 2.638 5.976.054 12.215 1.439 17.901 3.198 3.028.96 5.739 2.852 8.951 2.932m-286.939-1.759c-11.478 1.44-21.692 6.397-28.72 15.885-1.659 2.239-5.081 4.717-5.187 7.729-.052 2.639 2.685 3.998 4.686 4.984 5.107 2.479 11.346 2.212 16.848 1.599 10.74-1.199 27.667-6.929 33.563-16.711 5.634-9.355-14.688-14.286-21.19-13.486m287.992 2.559c.605.506 1.053.666 1.843.799-.527-.586-1.053-.693-1.843-.799M48.82 203.041c3.317-.24 5.08 2.372 6.949 4.691 4.212 5.197 6.503 10.981 8.477 17.324 5.923 18.95 16.583 38.913 1.579 56.237-3.422 3.971-8.476 7.836-13.847 8.236-6.239.452-21.981 1.012-24.218-6.904-.975-3.465.447-7.302 1.895-10.394.448-.933 1.527-2.905.342-3.705-1.263-.826-2.816 1.28-3.474 2.132-2.001 2.559-3.66 9.649-7.977 6.317-5.528-4.238-8.529-11.807-10.372-18.337-1.211-4.264-4.369-10.848-4.028-15.192.158-2.239 1.79-3.998 2.396-6.13 5.265-18.23 23.218-32.969 42.278-34.275m106.167 1.573c-1.579.399-.263 3.331.131 4.184 1.764 3.864 3.239 7.889 5.029 11.727.447.96 1.5 3.145 2.842 2.878 1.685-.346.553-3.811.237-4.744-1.447-3.998-2.369-8.156-5.133-11.46-.657-.8-1.843-2.878-3.106-2.585m220.785-.241c-4.397.534-14.005.64-16.373 5.225-1.975 3.864 3.316 9.594 5.869 11.887 7.713 7.063 22.377 13.699 32.88 12.26 3.159-.453 8.766-1.2 9.741-4.958.79-2.985-5.187-11.913-7.055-14.392-4.318-5.704-18.007-10.847-25.062-10.022m55.809 14.952c3.474-.852 6.317 2.425 8.687 4.478 6.897 5.997 11.188 14.872 15.531 22.842 1.976 3.544 2.632 8.901-2.106 10.341-9.134 2.772-18.111-.16-26.324-4.265-2.448-1.253-6.397-2.079-7.739-4.744-1.107-2.212.657-5.064 1.21-7.196 1.527-5.864 3.08-11.381 6.318-16.525 1.132-1.758 2.238-4.371 4.423-4.931m-167.689 12.394c6.529 2.852 3.422 14.979 3.422 21.055 0 14.526-1.236 27.799 2.37 41.845 1.29 4.877 1.948 9.142 4.975 13.326 2.369 3.305 5.16 6.343 8.451 8.742 4.738 3.465 11.24 3.731 16.847 3.545 18.506-.586 33.828-15.672 46.858-27.426 5.054-4.531 9.346-9.941 14.479-14.392 2.29-1.972 6.423.373 5.976-4.051-.264-2.665-.948-7.516-4.66-6.983-3.765.533-6.24 4.505-9.74 5.811-7.555 2.878-15.532 7.196-23.692 7.808-7.003.507-16.823-3.091-23.167-5.943-14.793-6.636-22.481-22.415-28.272-36.674-1.343-3.331-1.896-7.889-3.502-10.901-2.184-4.051-9.133 1.946-10.345 4.238m43.962 1.519c-3.553.747-7.318 5.65-8.686 8.875-.342.88-1.554 5.065.315 5.065 2.317 0 7.818-9.196 9.082-11.195.737-1.146 1.501-3.224-.711-2.745m-102.929 7.383c-1.237.906-.527 7.276 1.159 6.024 1.526-1.12 0-6.904-1.186-6.024m-39.275 8.795c-2.16 1.253 1.552 7.277 2.553 8.369 2.896 3.145 12.267 3.039 15.373.187 1.501-1.413.632-2.985-1.263-3.012-3.555-.054-7.055 2.985-10.53.72-1.29-.853-4.476-7.197-6.133-6.264m140.915 2.479c-1.79.373-2.264 1.866-1 3.198 4.08 4.158 13.61 12.154 20.164 9.169 1.527-.693.922-2.665-.263-3.332-1.921-1.066-4.29.906-6.528 0-3.949-1.626-8.004-9.861-12.373-9.035m-110.169.347c-.974.453.053 1.572.842 1.305 1.133-.399.08-1.705-.842-1.305m219.68 7.595c3.343-.479 7.16 1.626 10.53 1.946 6.766.613 13.769-.053 20.533-.213 1.922-.054 8.398-1.68 8.819 1.359.554 3.838-6.528 7.196-9.345 8.263-9.082 3.358-18.69 3.464-28.168 4.61-3.264.4-6.976 2.666-10.267 2.133-2.895-.427-.789-3.599-.183-5.171 1.394-3.785 3.264-12.234 8.081-12.927m-77.395 1.253c-1.816.56-5.87 6.983-2.369 6.157 2.264-.534 4.738-6.93 2.369-6.157M79.093 275.349c2.79-.64 7.634 4.797 6.581 7.543-.974 2.612-4.897 3.172-6.845 4.877-3.632 3.198-6.317 7.969-7.371 12.713-.894 3.811 3.739 13.194-1.315 14.766-9.556 3.012-25.115.533-31.933-7.063-1.895-2.132-6.923-7.649-5.081-10.847 1.791-3.145 11.11-.027 14.111-.054 9.003-.053 17.006-3.465 22.824-10.394 2-2.372 6.212-10.901 9.029-11.541m12.898 13.327c4.344.372 11.611 8.262 15.007 11.06 1.394 1.146 4.053 2.825 2.632 4.958-1.396 2.132-4.818 2.611-7.109 2.931a108.275 108.275 0 0 0-15.53 3.119c-2.449.746-4.397 2.745-7.109 2.479-4.605-.481-5.528-4.798-3.738-8.476 2.659-5.597 8.372-16.658 15.847-16.045m324.585 1.999c1.895-.186 7.213-.933 8.318 1.066.948 1.733-1.816 2.985-2.711 3.971-1.58 1.679-2.054 4.185-1.265 6.344a12.289 12.289 0 0 0 7.24 7.222c1.711.507 4.529-.399 5.791 1.2 1.159 1.439-.525 3.518-1.368 4.637a15.575 15.575 0 0 1-10.214 5.997c-10.783 1.1-21.449-2.997-28.799-11.06-2.817-3.306-6.344-9.062-3.343-13.327 1.921-2.719 4.975-2.719 7.923-3.038 6.187-.72 12.241-2.346 18.428-3.012m10.529 5.597c3.174-.363 6.237 1.304 7.687 4.184.948 2.026.658 5.464-1.896 6.024-5.527 1.226-13.266-9.062-5.791-10.181m-335.114 24.52a11.73 11.73 0 0 1 8.635 1.999c2.633 2.239-.394 5.251-2.843 5.757-5.159 1.012-14.478-6.263-5.792-7.73m249.032 4.798c3.476-.719 2.291 4.425 1.212 5.996-2.976 4.398-7.845 7.144-11.478 10.929-1.132 1.199-2.632 3.917-4.475 4.051-2.844.186-5.081-7.197-3.843-9.302.789-1.333 3.106-2.132 4.369-3.012 3.712-2.666 9.767-7.729 14.215-8.635m-60.414 1.519c-1.948 1.386 4.316 5.277 5.922 3.598 1.185-1.279-4.422-4.664-5.922-3.598m94.9 4.051c7.607-.107 20.481 6.29 24.218 12.926 6.108 10.661 3.713 22.175-9.739 22.655-10.268.346-20.929-2.212-28.326-9.915-3.395-3.544-10.134-11.274-8.582-16.737 1.448-5.145 8.477-6.716 12.952-7.57 3.027-.586 6.396-1.306 9.477-1.332m-272.724 12.713c1.027-.16 1.211 1.812.264 1.972-1.027.16-1.212-1.812-.264-1.972m209.545 1.066c6.317-.88 9.345 6.397 7.24 11.647-2.836 7.266-9.546 12.234-17.244 12.767-3.738.266-7.686.213-10.792-2.212-1.317-1.013-3.502-3.465-1.265-4.798 2.633-1.572 5.95 1.173 8.635 1.306 2.027.08 3.896-1.759 5.265-3.091 4.476-4.532-1.053-7.543.421-12.181.737-2.345 5.686-3.145 7.74-3.412m-16.321 6.131c6.028-.267 7.555 7.009 1.053 7.329-1.843.107-5.002.533-6.424-.959-2.895-2.959 3.001-6.237 5.371-6.343z" fill="#060606"/></svg>